<svg width="74" height="72" viewBox="0 0 74 72" fill="none" xmlns="http://www.w3.org/2000/svg">
<circle cx="32.5" cy="32.5" r="32.5" fill="#C6E9F9"/>
<path d="M11.917 14.4434V13.0693H25.7554C33.3888 13.0693 38.9395 14.7487 42.4072 18.1074C45.875 21.4443 47.6089 26.2861 47.6089 32.6328C47.6089 40.9642 44.0321 46.6457 36.8784 49.6772C33.2362 51.2039 28.9287 51.9782 23.9561 52C14.665 52 8.80908 49.5464 6.38818 44.6392C5.58122 43.0034 5.17773 41.1169 5.17773 38.9795C5.17773 34.2467 7.34782 30.7572 11.688 28.5107C13.0838 27.791 14.6432 27.2458 16.3662 26.875V19.9395C16.3662 17.9548 16.2026 16.668 15.8755 16.0791C15.5483 15.4684 14.8722 15.054 13.8472 14.8359L11.917 14.4434ZM31.186 29.394C31.186 30.8989 30.39 31.6623 28.7979 31.6841C27.9691 31.6841 27.1512 31.2588 26.3442 30.4082C25.5373 29.5576 24.8939 28.9906 24.4141 28.707C23.7816 28.3145 22.5384 28.2054 20.6846 28.3799V49.9062C21.099 49.9499 21.5788 49.9717 22.124 49.9717H24.3159C29.1141 49.9717 33.1162 48.8703 36.3223 46.6675C40.597 43.7013 42.7453 39.0667 42.7671 32.7637C42.7671 24.3232 39.681 18.8926 33.5088 16.4717C31.2406 15.5993 28.6561 15.1631 25.7554 15.1631H20.6846V26.3188C20.9899 26.297 21.3825 26.2861 21.8623 26.2861C25.9844 26.2861 28.6452 26.6133 29.8447 27.2676C30.7171 27.7474 31.1642 28.4562 31.186 29.394ZM16.3662 29.2305C10.9792 30.9316 8.27474 34.2358 8.25293 39.1431C8.25293 43.3524 10.4557 46.4276 14.8613 48.3687C15.9736 48.8485 17.1841 49.2301 18.4927 49.5137C17.8166 49.1429 17.1077 48.5322 16.3662 47.6816V29.2305Z" fill="#0D5C63"/>
<path d="M37.8053 44.4375V20.375C37.8053 18.4792 37.649 17.2396 37.3365 16.6562C37.024 16.0938 36.3782 15.7083 35.399 15.5L33.5553 15.125V13.8125H46.6803C49.9303 13.8125 52.4615 14.5833 54.274 16.125C56.0865 17.6667 57.0032 19.7292 57.024 22.3125C57.024 24.8958 56.0032 27.0833 53.9615 28.875C53.0449 29.6875 52.0553 30.2917 50.9928 30.6875C53.847 30.9583 56.0032 32.0208 57.4615 33.875C58.9199 35.7292 59.649 38.0521 59.649 40.8438C59.649 43.6562 58.3886 46.0521 55.8678 48.0312C53.347 50.0104 49.6907 51 44.899 51H33.5553V49.6875L35.3678 49.3125C36.5136 49.0833 37.2011 48.625 37.4303 47.9375C37.6803 47.25 37.8053 46.0833 37.8053 44.4375ZM44.649 31.6875H41.9928V49.0625C46.972 49.0625 50.3782 48.3125 52.2115 46.8125C54.0449 45.3125 54.9615 43.0729 54.9615 40.0938C54.9615 35.3854 52.722 32.6667 48.2428 31.9375C47.2428 31.7708 46.0449 31.6875 44.649 31.6875ZM45.0553 15.75H41.9928V29.75H44.7428C48.4095 29.75 50.774 28.3229 51.8365 25.4688C52.1699 24.5521 52.3365 23.5729 52.3365 22.5312C52.2949 18.0312 49.8678 15.7708 45.0553 15.75Z" fill="#0D5C63"/>
</svg>
